<svg xmlns="http://www.w3.org/2000/svg" width="104.08" height="50" viewBox="0 0 104.08 50">
  <path id="logo" d="M4736.762-967v-5.857h.675v.552h.042a1.011,1.011,0,0,1,.634-.483,5.55,5.55,0,0,1,1.42-.124,10.245,10.245,0,0,1,1.322.069,2.033,2.033,0,0,1,.73.234,1.423,1.423,0,0,1,.607.7,3.54,3.54,0,0,1,.165,1.213,2.607,2.607,0,0,1-.3,1.434,1.39,1.39,0,0,1-.812.62,7.4,7.4,0,0,1-1.778.151,6.022,6.022,0,0,1-1.336-.11,1.127,1.127,0,0,1-.635-.455h-.04V-967Zm1.709-5.25a1.356,1.356,0,0,0-.592.179.863.863,0,0,0-.345.468,2.815,2.815,0,0,0-.11.854,3.367,3.367,0,0,0,.11.964.874.874,0,0,0,.4.483,3.551,3.551,0,0,0,1.5.207,8.2,8.2,0,0,0,1.144-.055,1.322,1.322,0,0,0,.579-.179,1,1,0,0,0,.358-.483,2.852,2.852,0,0,0,.109-.868,3.282,3.282,0,0,0-.109-.952.8.8,0,0,0-.4-.468,3.274,3.274,0,0,0-1.42-.206A9.1,9.1,0,0,0,4738.471-972.251Zm36.467,3.707a2.056,2.056,0,0,1-.758-.221,1.334,1.334,0,0,1-.619-.675,3.435,3.435,0,0,1-.194-1.268,3.012,3.012,0,0,1,.262-1.379,1.341,1.341,0,0,1,.758-.647,5.594,5.594,0,0,1,1.626-.166,10.35,10.35,0,0,1,1.5.069,1.972,1.972,0,0,1,.758.221,1.445,1.445,0,0,1,.593.689,3.344,3.344,0,0,1,.179,1.226,2.975,2.975,0,0,1-.221,1.309,1.5,1.5,0,0,1-.427.538,1.851,1.851,0,0,1-.69.276,7.981,7.981,0,0,1-1.391.083A11.566,11.566,0,0,1,4774.938-968.544Zm.166-3.707a1.342,1.342,0,0,0-.551.179.8.8,0,0,0-.345.482,3.122,3.122,0,0,0-.111.911,2.253,2.253,0,0,0,.152.978.809.809,0,0,0,.5.455,5.064,5.064,0,0,0,1.517.152,7.221,7.221,0,0,0,1.088-.055,1.36,1.36,0,0,0,.551-.207.827.827,0,0,0,.316-.468,3.048,3.048,0,0,0,.1-.9,2.462,2.462,0,0,0-.152-.992.835.835,0,0,0-.578-.469,5.722,5.722,0,0,0-1.46-.123A6.371,6.371,0,0,0,4775.1-972.251Zm-29.466,3.707a2.054,2.054,0,0,1-.758-.221,1.336,1.336,0,0,1-.619-.675,3.474,3.474,0,0,1-.18-1.268,3.032,3.032,0,0,1,.262-1.379,1.343,1.343,0,0,1,.759-.647,5.421,5.421,0,0,1,1.612-.166,10.353,10.353,0,0,1,1.5.069,1.974,1.974,0,0,1,.758.221,1.439,1.439,0,0,1,.592.689,3.334,3.334,0,0,1,.179,1.226,2.975,2.975,0,0,1-.221,1.309,1.5,1.5,0,0,1-.427.538,1.837,1.837,0,0,1-.688.276,8,8,0,0,1-1.393.083A11.572,11.572,0,0,1,4745.637-968.544Zm.166-3.707a1.35,1.35,0,0,0-.551.179.8.8,0,0,0-.345.482,3.1,3.1,0,0,0-.111.911,2.245,2.245,0,0,0,.153.978.807.807,0,0,0,.5.455,5.066,5.066,0,0,0,1.515.152,7.319,7.319,0,0,0,1.088-.055,1.359,1.359,0,0,0,.552-.207.826.826,0,0,0,.317-.468,3.085,3.085,0,0,0,.1-.9,2.474,2.474,0,0,0-.151-.992.84.84,0,0,0-.579-.469,5.724,5.724,0,0,0-1.461-.123A6.358,6.358,0,0,0,4745.8-972.251Zm-21.155,3.707a2.045,2.045,0,0,1-.758-.221,1.338,1.338,0,0,1-.621-.675,3.487,3.487,0,0,1-.179-1.268,3.012,3.012,0,0,1,.262-1.379,1.339,1.339,0,0,1,.758-.647,5.411,5.411,0,0,1,1.611-.166,10.377,10.377,0,0,1,1.5.069,1.966,1.966,0,0,1,.757.221,1.439,1.439,0,0,1,.594.689,3.365,3.365,0,0,1,.179,1.226,3,3,0,0,1-.221,1.309,1.526,1.526,0,0,1-.428.538,1.843,1.843,0,0,1-.689.276,7.994,7.994,0,0,1-1.392.083A11.548,11.548,0,0,1,4724.648-968.544Zm.165-3.707a1.353,1.353,0,0,0-.551.179.806.806,0,0,0-.345.482,3.181,3.181,0,0,0-.109.911,2.279,2.279,0,0,0,.151.978.81.81,0,0,0,.5.455,5.078,5.078,0,0,0,1.517.152,7.212,7.212,0,0,0,1.089-.055,1.361,1.361,0,0,0,.55-.207.817.817,0,0,0,.317-.468,3.045,3.045,0,0,0,.1-.9,2.481,2.481,0,0,0-.152-.992.839.839,0,0,0-.58-.469,5.713,5.713,0,0,0-1.46-.123A6.391,6.391,0,0,0,4724.813-972.251Zm41.428,3.638a1.11,1.11,0,0,1-.58-.372,1.17,1.17,0,0,1-.192-.441,4.532,4.532,0,0,1-.055-.757v-2.1h-1.062v-.579h1.062v-1.06h.661v1.06h3.018v.579h-3.018v1.875a6.151,6.151,0,0,0,.028.744.522.522,0,0,0,.138.276.626.626,0,0,0,.386.221,3.206,3.206,0,0,0,.743.069,2.645,2.645,0,0,0,.676-.069.645.645,0,0,0,.332-.234.68.68,0,0,0,.1-.276,4.739,4.739,0,0,0,.027-.551v-.276h.675v.276a5.025,5.025,0,0,1-.041.744,1.306,1.306,0,0,1-.18.455,1.011,1.011,0,0,1-.564.4,3.529,3.529,0,0,1-1.062.124A4.364,4.364,0,0,1,4766.241-968.613Zm-7.593.056a1.33,1.33,0,0,1-.662-.235.841.841,0,0,1-.317-.385,1.914,1.914,0,0,1-.083-.634,1.682,1.682,0,0,1,.138-.772.82.82,0,0,1,.455-.4,5.332,5.332,0,0,1,1.612-.151,11.3,11.3,0,0,1,1.737.082.987.987,0,0,1,.634.386h.055v-.468a1.277,1.277,0,0,0-.207-.814.936.936,0,0,0-.551-.3,6.215,6.215,0,0,0-1.213-.083,5.105,5.105,0,0,0-1.433.124.529.529,0,0,0-.317.564.255.255,0,0,0-.013.083h-.7c0-.083-.013-.138-.013-.179a.919.919,0,0,1,.511-.923,4.921,4.921,0,0,1,1.9-.249,8.8,8.8,0,0,1,1.586.1,1.475,1.475,0,0,1,.758.386,1.03,1.03,0,0,1,.289.538,6.106,6.106,0,0,1,.068,1.074v2.275h-.674l.013-.51h-.042a1.137,1.137,0,0,1-.605.455,5.907,5.907,0,0,1-1.351.1A13.536,13.536,0,0,1,4758.648-968.557Zm.413-1.93a1.18,1.18,0,0,0-.483.11.622.622,0,0,0-.262.579.573.573,0,0,0,.316.566,6.451,6.451,0,0,0,1.737.123,4.563,4.563,0,0,0,1.434-.138.551.551,0,0,0,.345-.564.554.554,0,0,0-.386-.566,5.927,5.927,0,0,0-1.53-.138C4759.667-970.515,4759.282-970.5,4759.061-970.487Zm-41.594,1.9a1.925,1.925,0,0,1-.827-.289,2.192,2.192,0,0,1-.634-1.82,2.933,2.933,0,0,1,.275-1.419,1.4,1.4,0,0,1,.772-.634,5.78,5.78,0,0,1,1.654-.166,8.408,8.408,0,0,1,1.543.11,1.514,1.514,0,0,1,.772.373,1.131,1.131,0,0,1,.275.441,2.1,2.1,0,0,1,.1.675h-.716a.83.83,0,0,0-.4-.8,4.2,4.2,0,0,0-1.571-.193,3.219,3.219,0,0,0-1.517.234.906.906,0,0,0-.345.5,3.322,3.322,0,0,0-.109.937,2.485,2.485,0,0,0,.125.881.817.817,0,0,0,.413.468,4.741,4.741,0,0,0,1.709.194,3.232,3.232,0,0,0,1.379-.194c.234-.123.344-.4.357-.813h.69a1.65,1.65,0,0,1-.359,1.145,1.19,1.19,0,0,1-.675.358,5.871,5.871,0,0,1-1.255.1A11.987,11.987,0,0,1,4717.467-968.585Zm34.082.07v-4.328h.662v.578h.041a1.109,1.109,0,0,1,.483-.455,1.523,1.523,0,0,1,.509-.138,8.4,8.4,0,0,1,.951-.041,5.15,5.15,0,0,1,.951.069,1.389,1.389,0,0,1,.538.262,1.546,1.546,0,0,1,.441,1.226v.441h-.688v-.3a1.817,1.817,0,0,0-.057-.538.584.584,0,0,0-.164-.3,1.676,1.676,0,0,0-1.075-.234,2.552,2.552,0,0,0-1.571.317,2.094,2.094,0,0,0-.345,1.461v1.985Zm-20.989,0v-4.328h.661v.578h.041a1.113,1.113,0,0,1,.483-.455,1.54,1.54,0,0,1,.509-.138,8.252,8.252,0,0,1,.952-.041,5.14,5.14,0,0,1,.951.069,1.391,1.391,0,0,1,.537.262,1.543,1.543,0,0,1,.441,1.226v.441h-.7v-.3a2.734,2.734,0,0,0-.042-.538.6.6,0,0,0-.166-.3,1.645,1.645,0,0,0-1.075-.234,2.553,2.553,0,0,0-1.572.317,2.1,2.1,0,0,0-.344,1.461v1.985Zm54.933-.028v-2.136a3.953,3.953,0,0,0-.055-.828.936.936,0,0,0-.193-.427.927.927,0,0,0-.524-.29,5.061,5.061,0,0,0-1.061-.082,5.535,5.535,0,0,0-1.228.11,1.4,1.4,0,0,0-.661.372,1.238,1.238,0,0,0-.207.428,5.237,5.237,0,0,0-.055.84v1.985h-.675v-4.271h.675v.647h.055a1.087,1.087,0,0,1,.662-.551,5.4,5.4,0,0,1,1.5-.152,6.74,6.74,0,0,1,1.377.1,1.378,1.378,0,0,1,.7.372,1.007,1.007,0,0,1,.275.538,3.905,3.905,0,0,1,.083.923v2.426Zm-14.65,0v-4.3h.675v4.3Zm-19.308-4.3h.013Zm-20.99,0h.015Zm40.3-1.075v-.813h.675v.813Zm-5.443,0h.014Zm13.74-5.32a6.461,6.461,0,0,1-1.86-4.837,6.472,6.472,0,0,1,1.86-4.852,6.837,6.837,0,0,1,4.989-1.819,6.792,6.792,0,0,1,4.961,1.819,6.52,6.52,0,0,1,1.86,4.865,6.455,6.455,0,0,1-1.847,4.837,6.751,6.751,0,0,1-4.975,1.805A6.837,6.837,0,0,1,4779.141-979.238Zm2.577-7.676a4.354,4.354,0,0,0-.854,2.852,4.394,4.394,0,0,0,.854,2.866,2.943,2.943,0,0,0,2.4,1.034,2.961,2.961,0,0,0,2.4-1.034,4.318,4.318,0,0,0,.868-2.866,4.324,4.324,0,0,0-.868-2.867,3,3,0,0,0-2.4-1.019A2.962,2.962,0,0,0,4781.717-986.914Zm-61.934,9.3a12.438,12.438,0,0,1-3.377-.358,6.49,6.49,0,0,1-2.206-1.185,6.664,6.664,0,0,1-2.026-2.8,11.194,11.194,0,0,1-.675-4.121q0-4.652,2.026-6.863t6.242-2.219h7.938v3.018h-7.938a3.614,3.614,0,0,0-3.169,1.406,7.951,7.951,0,0,0-.992,4.493,6.878,6.878,0,0,0,.992,4.162,3.771,3.771,0,0,0,3.169,1.3h4.162v-4.135H4719v-3.115h8.725v10.419Zm51.226-.013a6.563,6.563,0,0,1-4.838-1.626,6.467,6.467,0,0,1-1.64-4.81,6.519,6.519,0,0,1,1.64-4.81,6.612,6.612,0,0,1,4.838-1.64h4.961v2.687h-4.507a4.222,4.222,0,0,0-2.494.524,2.485,2.485,0,0,0-.69,1.9h7.69v2.688h-7.676a2.533,2.533,0,0,0,.634,1.888,4.1,4.1,0,0,0,2.507.51h4.535v2.688Zm-12.2,0v-17.559h3.542v17.559Zm-6.463,0v-12.886h3.569v12.886Zm-6.45,0v-17.559h3.541v17.559Zm-12.073,0a4.129,4.129,0,0,1-2.948-.965,3.573,3.573,0,0,1-1.034-2.743,3.865,3.865,0,0,1,1.185-3.156,6.361,6.361,0,0,1,3.941-.951h4.48v-.317a1.789,1.789,0,0,0-.675-1.612,4.573,4.573,0,0,0-2.413-.469h-5.691l.013-2.673h6.974a5.736,5.736,0,0,1,3.982,1.213,4.607,4.607,0,0,1,1.337,3.6v8.077Zm-.028-4.935a1.291,1.291,0,0,0-.455,1.117,1.131,1.131,0,0,0,.359.951,2.871,2.871,0,0,0,1.5.275h4.271v-2.66h-4.024A3.13,3.13,0,0,0,4733.8-982.56Zm62.046-3c0-11.273-20.136-20.466-44.8-20.466-24.684,0-44.8,9.193-44.8,20.466a10.538,10.538,0,0,0,1.764,5.678c-5.679-3.8-9-8.394-9-13.341-.014-13.093,23.374-23.774,52.041-23.774s52.04,10.681,52.04,23.774c0,4.933-3.322,9.523-9,13.341A10.531,10.531,0,0,0,4795.845-985.563Zm-43.5-6.409v-3.2h3.569v3.2Zm44.846-16.579a3.6,3.6,0,0,1-1.171-.813,3.8,3.8,0,0,1-.773-1.158,3.47,3.47,0,0,1-.261-1.351,3.274,3.274,0,0,1,.138-.964,3.764,3.764,0,0,1,.385-.911,3.517,3.517,0,0,1,1.3-1.281,3.241,3.241,0,0,1,1.764-.483,3.7,3.7,0,0,1,1.406.276,3.461,3.461,0,0,1,1.187.813,3.248,3.248,0,0,1,.757,1.158,3.559,3.559,0,0,1,.262,1.379,3.636,3.636,0,0,1-.276,1.392,3.318,3.318,0,0,1-.785,1.157,3.8,3.8,0,0,1-1.187.786,3.591,3.591,0,0,1-1.364.276A3.61,3.61,0,0,1,4797.195-1008.551Zm.234-6.133a2.865,2.865,0,0,0-.951.634,2.988,2.988,0,0,0-.675.992,3.023,3.023,0,0,0-.234,1.157,2.945,2.945,0,0,0,.221,1.145,2.81,2.81,0,0,0,.647.964,3.093,3.093,0,0,0,.979.675,2.964,2.964,0,0,0,1.144.234,2.934,2.934,0,0,0,1.13-.221,3.38,3.38,0,0,0,1.005-.647,3,3,0,0,0,.648-.951,2.848,2.848,0,0,0,.234-1.117,3.031,3.031,0,0,0-.221-1.185,2.641,2.641,0,0,0-.647-.964,2.891,2.891,0,0,0-.979-.675,2.3,2.3,0,0,0-1.158-.262A2.853,2.853,0,0,0,4797.429-1014.684Zm1.847,4.713-.758-1.64h-.482v1.64h-.964v-4h1.571a2.324,2.324,0,0,1,1.281.289.961.961,0,0,1,.427.854,1.027,1.027,0,0,1-.234.675,1.138,1.138,0,0,1-.647.385l.9,1.792Zm-1.226-3.39v1.158h.481a1.11,1.11,0,0,0,.634-.138.473.473,0,0,0,.193-.428.5.5,0,0,0-.219-.455,1.209,1.209,0,0,0-.663-.151h-.426Z" transform="translate(-4699 1017)" fill="#fff"/>
</svg>
