<svg id="znak" xmlns="http://www.w3.org/2000/svg" width="24" height="40" viewBox="0 0 24 40">
  <path id="Path_165" data-name="Path 165" d="M486.1,305.717l5.45-5.651a26.384,26.384,0,0,1,8.545,11.678c-.448,8.585-5.024,13.614-9.877,16.766C496.064,321.054,495.161,313.181,486.1,305.717Z" transform="translate(-486.099 -288.584)" fill="#408fcf" fill-rule="evenodd"/>
  <path id="Path_166" data-name="Path 166" d="M498.105,318.532c3.968-6.966,3.449-16.1-2.681-24.291l8.162-8.528c8.487,12.778,9.912,27.258,3.67,40h-16.1a20.887,20.887,0,0,0,5.882-5.51A18.745,18.745,0,0,0,498.105,318.532Z" transform="translate(-487.11 -285.713)" fill="#0056a3" fill-rule="evenodd"/>
</svg>
